<svg width="37" height="37" viewBox="0 0 37 37" fill="none" xmlns="http://www.w3.org/2000/svg">
<path fill-rule="evenodd" clip-rule="evenodd" d="M29.5333 36.3452C33.4799 36.3452 36.6916 33.1335 36.6916 29.1868V14.8702H29.0393C29.7218 16.3257 30.1298 17.9315 30.1298 19.6424C30.1298 25.8916 25.045 30.9764 18.7958 30.9764C12.5465 30.9764 7.46172 25.8916 7.46172 19.6424C7.46172 17.9315 7.86974 16.3257 8.55217 14.8702H0.899902V29.1868C0.899902 33.1335 4.11161 36.3452 8.05825 36.3452H29.5333ZM18.7958 28.5903C23.7302 28.5903 27.7437 24.5769 27.7437 19.6424C27.7437 14.7079 23.7302 10.6945 18.7958 10.6945C13.8613 10.6945 9.84783 14.7079 9.84783 19.6424C9.84783 24.5769 13.8613 28.5903 18.7958 28.5903ZM18.7958 8.30834C22.3177 8.30834 25.4292 9.95714 27.5099 12.484H36.6916V7.71181C36.6916 3.76518 33.4799 0.553467 29.5333 0.553467H8.05825C4.11161 0.553467 0.899902 3.76518 0.899902 7.71181V12.484H10.0817C12.1624 9.95714 15.2739 8.30834 18.7958 8.30834ZM33.0027 4.66339V7.76057C33.0027 8.47402 32.4205 9.05623 31.7094 9.05623H28.4452C27.7294 9.05384 27.1472 8.47163 27.1472 7.76057V4.66339C27.1472 3.94994 27.7294 3.36773 28.4452 3.36773H31.7094C32.4205 3.36773 33.0027 3.94994 33.0027 4.66339Z" fill="white"/>
</svg>
