<svg width="42" height="34" viewBox="0 0 42 34" fill="none" xmlns="http://www.w3.org/2000/svg">
<path d="M36.8617 9.15007C36.888 9.51038 36.888 9.87068 36.888 10.2334C36.888 21.2214 28.5222 33.8845 13.2344 33.8845C8.52422 33.8845 4.14808 32.5197 0.466309 30.1527C1.13681 30.229 1.78106 30.2529 2.47542 30.2529C6.3624 30.2529 9.9368 28.9405 12.7954 26.7023C9.13983 26.626 6.07845 24.2303 5.02379 20.9351C5.5368 21.0114 6.0522 21.0639 6.58908 21.0639C7.33832 21.0639 8.08517 20.9613 8.77953 20.7824C4.97129 20.0093 2.11273 16.6639 2.11273 12.6243C2.11273 12.598 2.11273 12.5455 2.11273 12.5217C3.21988 13.1373 4.506 13.5238 5.87086 13.5763C3.63268 12.0826 2.16522 9.53424 2.16522 6.6542C2.16522 5.11038 2.57802 3.69303 3.29863 2.45702C7.39081 7.50365 13.5422 10.7989 20.4405 11.1568C20.3092 10.5388 20.2329 9.89454 20.2329 9.25029C20.2329 4.67134 23.9409 0.939453 28.5461 0.939453C30.9394 0.939453 33.1012 1.94162 34.6211 3.56418C36.499 3.20388 38.2981 2.50952 39.8968 1.55746C39.2788 3.48782 37.9665 5.11038 36.2413 6.13641C37.9164 5.95745 39.5365 5.49455 41.0303 4.85029C39.8968 6.49671 38.4819 7.96656 36.8617 9.15007Z" fill="white"/>
</svg>
