<svg width="39" height="38" viewBox="0 0 39 38" fill="none" xmlns="http://www.w3.org/2000/svg">
<path d="M0.541665 12.4101H8.74513V37.0419H0.541665V12.4101ZM4.6935 0.553467C1.90891 0.553467 0.0692139 2.39316 0.0692139 4.80552C0.0692139 7.16539 1.83494 9.05519 4.59329 9.05519H4.6434C7.50196 9.05519 9.29155 7.16539 9.26768 4.80552C9.24144 2.39316 7.50196 0.553467 4.6935 0.553467ZM28.8267 11.8374C24.4625 11.8374 22.5202 14.2283 21.444 15.9153V12.4101H13.2668C13.2668 12.4101 13.367 14.7222 13.2668 37.0419H21.444V23.2955C21.444 22.5511 21.5204 21.8281 21.716 21.284C22.315 19.8166 23.6536 18.3014 25.9204 18.3014C28.8744 18.3014 30.0674 20.5634 30.0674 23.8682V37.0419H38.247V22.9233C38.247 15.3665 34.2193 11.8374 28.8267 11.8374Z" fill="white"/>
</svg>
