<svg width="37" height="44" viewBox="0 0 37 44" fill="none" xmlns="http://www.w3.org/2000/svg">
<path d="M17.8799 16.3923C18.9922 16.3923 19.8373 15.9855 20.4406 15.1694C20.9013 14.5707 21.1151 13.6106 21.1151 12.3398V8.14584C21.1151 6.87502 20.9013 5.94023 20.4406 5.34146C19.8348 4.53046 18.9897 4.12117 17.8799 4.12117C16.7904 4.12117 15.9453 4.52793 15.3471 5.34146C14.8864 5.94276 14.67 6.87755 14.67 8.14837V12.3423C14.67 13.6131 14.8864 14.5479 15.3471 15.172C15.9453 15.9855 16.7904 16.3923 17.8799 16.3923ZM16.8413 7.71634C16.8413 6.6148 17.1799 6.06403 17.8799 6.06403C18.6053 6.06403 18.9184 6.6148 18.9184 7.71634V12.7491C18.9184 13.8531 18.6053 14.4267 17.8799 14.4267C17.1799 14.4267 16.8413 13.8506 16.8413 12.7491V7.71634ZM23.0955 15.5055C22.9733 15.1442 22.9046 14.5707 22.9046 13.7091V4.26518H25.1013V13.0598C25.1013 13.5651 25.1013 13.8506 25.1268 13.9011C25.1751 14.2372 25.3431 14.4267 25.6333 14.4267C26.0661 14.4267 26.5242 14.0906 27.0079 13.3959V4.26518H29.2046V16.2255H27.0079V14.9067C26.1399 15.9122 25.3202 16.3923 24.5184 16.3923C23.8184 16.3923 23.3119 16.1068 23.0955 15.5055ZM31.4523 30.0074V31.109H29.2784V30.0074C29.2784 28.9286 29.6424 28.3753 30.3653 28.3753C31.0883 28.3778 31.4523 28.9286 31.4523 30.0074ZM7.83293 4.6492C7.30347 3.16363 6.77402 1.6528 6.26238 0.167236H8.82566L10.5388 6.47079L12.1806 0.167236H14.6446L11.7224 9.72994V16.2255H9.30929V9.72994C9.09039 8.55513 8.60675 6.87755 7.83293 4.6492ZM35.6523 22.3623C35.217 20.4675 33.6464 19.0779 31.7883 18.8631C27.3439 18.3831 22.8511 18.3831 18.3839 18.3831C13.9166 18.3831 9.42384 18.3831 5.00492 18.8631C3.12637 19.0779 1.57873 20.4675 1.12055 22.3623C0.517276 25.0454 0.491821 27.9711 0.491821 30.7502C0.491821 33.5066 0.491821 36.4525 1.12055 39.1381C1.55582 41.033 3.12637 42.4225 4.98456 42.6145C9.42639 43.1173 13.9191 43.1173 18.3864 43.1173C22.8537 43.1173 27.3464 43.1173 31.7908 42.6145C33.6464 42.4225 35.1941 41.033 35.6548 39.1381C36.2581 36.455 36.2835 33.5066 36.2835 30.7502C36.281 27.9711 36.281 25.0454 35.6523 22.3623ZM10.7068 24.7827H8.12566V38.4206H5.71001V24.7827H3.17219V22.5291H10.7068V24.7827ZM17.2282 38.4206H15.0773V37.127C14.2068 38.1098 13.3871 38.5899 12.6133 38.5899C11.9158 38.5899 11.4068 38.3018 11.2133 37.7031C11.0911 37.3443 11.0198 36.791 11.0198 35.9547V26.584H13.1708V35.308C13.1708 35.8133 13.1708 36.076 13.1937 36.1493C13.2446 36.4828 13.4126 36.652 13.7002 36.652C14.138 36.652 14.5962 36.3186 15.0773 35.6465V26.5866H17.2282V38.4206ZM25.4399 34.8734C25.4399 35.9775 25.389 36.7657 25.221 37.2685C24.9562 38.1326 24.3504 38.5873 23.5053 38.5873C22.734 38.5873 21.9831 38.1553 21.2577 37.2685V38.4206H19.1119V22.5291H21.2577V27.7311C21.9577 26.867 22.7086 26.4375 23.5053 26.4375C24.3504 26.4375 24.9562 26.8923 25.221 27.7791C25.389 28.2591 25.4399 29.0474 25.4399 30.1514V34.8734ZM33.6006 32.9078H29.2784V34.9922C29.2784 36.0962 29.6424 36.6445 30.3908 36.6445C30.9228 36.6445 31.2359 36.359 31.3581 35.7829C31.381 35.6642 31.4064 35.1842 31.4064 34.3201H33.6032V34.6334C33.6032 35.3282 33.6032 35.8082 33.5548 36.023C33.5039 36.5005 33.3104 36.9325 33.0483 37.3165C32.4653 38.1553 31.5744 38.5873 30.4417 38.5873C29.3064 38.5873 28.4588 38.1806 27.8326 37.3645C27.3744 36.7885 27.1326 35.8537 27.1326 34.5829V30.4369C27.1326 29.1661 27.3515 28.2566 27.8097 27.6553C28.4384 26.8392 29.2835 26.4325 30.3959 26.4325C31.4853 26.4325 32.3279 26.8392 32.9541 27.6553C33.3919 28.254 33.6083 29.1636 33.6083 30.4369V32.9078H33.6006ZM23.289 29.9822V35.0402C23.289 36.119 22.9733 36.6445 22.3471 36.6445C21.9831 36.6445 21.6217 36.4777 21.2577 36.119V28.9059C21.6217 28.5446 21.9831 28.3778 22.3471 28.3778C22.9733 28.3778 23.289 28.9286 23.289 29.9822Z" fill="white"/>
</svg>
